<svg width="24" height="24" viewBox="0 0 24 24" fill="none" xmlns="http://www.w3.org/2000/svg">
<path d="M15 18V16.9584C15 16.5724 15.2256 16.2262 15.5579 16.0297C15.5745 16.0199 15.5911 16.01 15.6076 16C17.6404 14.7751 19 12.5463 19 10C19 6.13401 15.866 3 12 3C8.13401 3 5 6.13401 5 10C5 12.5463 6.35958 14.7751 8.39241 16C8.40895 16.01 8.42553 16.0199 8.44215 16.0297C8.77444 16.2262 9 16.5724 9 16.9584V18M15 18V19C15 20.6569 13.6569 22 12 22C10.3431 22 9 20.6569 9 19V18M15 18H9" stroke="black" stroke-width="2" stroke-linejoin="round"/>
</svg>
