<svg width="24" height="24" viewBox="0 0 24 24" fill="none" xmlns="http://www.w3.org/2000/svg">
<path d="M2 12.0001L1.11178 11.5407L0.874156 12.0001L1.11178 12.4595L2 12.0001ZM22 12L22.8882 12.4594L23.1258 12L22.8882 11.5406L22 12ZM2.88822 12.4595C5.16609 8.05552 8.65289 6.00008 12 6.00005C15.3471 6.00003 18.8339 8.05542 21.1118 12.4594L22.8882 11.5406C20.3386 6.61125 16.2391 4.00002 12 4.00005C7.76084 4.00008 3.66136 6.61136 1.11178 11.5407L2.88822 12.4595ZM1.11178 12.4595C3.66137 17.3889 7.76085 20.0001 12 20.0001C16.2392 20 20.3386 17.3888 22.8882 12.4594L21.1118 11.5406C18.8339 15.9446 15.3471 18 12 18.0001C8.65288 18.0001 5.16609 15.9447 2.88822 11.5407L1.11178 12.4595ZM14 12C14 13.1046 13.1046 14 12 14V16C14.2091 16 16 14.2091 16 12H14ZM12 14C10.8954 14 10 13.1046 10 12H8C8 14.2091 9.79086 16 12 16V14ZM10 12C10 10.8954 10.8954 10 12 10V8C9.79086 8 8 9.79086 8 12H10ZM12 10C13.1046 10 14 10.8954 14 12H16C16 9.79086 14.2091 8 12 8V10Z" fill="black"/>
</svg>
